<svg aria-label="daisyUI logomark" viewBox="0 0 450 450" fill="none" xmlns="http://www.w3.org/2000/svg">
  <g data-name="bg">
    <g opacity="0.7">
      <path d="M148.425 40.1667C142.7 48.5988 138.15 58.3812 135.152 69.5141C126.533 101.527 101.527 126.533 69.5137 135.153C58.3806 138.15 48.5979 142.7 40.1656 148.426C28.2144 85.9133 85.9125 28.2153 148.425 40.1667Z" fill="#FFD819"/>
      <path d="M40.1668 148.425C42.0807 158.436 45.7808 168.571 51.5333 178.563C68.0751 207.294 68.0751 242.658 51.5333 271.39C45.7806 281.382 42.0805 291.516 40.1667 301.528C-12.4873 265.775 -12.4872 184.178 40.1668 148.425Z" fill="#FFE029"/>
      <path d="M148.425 409.786C142.7 401.354 138.15 391.571 135.152 380.438C126.533 348.425 101.527 323.419 69.5137 314.8C58.3806 311.802 48.5979 307.252 40.1656 301.526C28.2144 364.039 85.9125 421.737 148.425 409.786Z" fill="#FFC141"/>
      <path d="M301.528 409.785C291.517 407.871 281.383 404.171 271.391 398.419C242.659 381.877 207.295 381.877 178.564 398.419C168.572 404.171 158.437 407.872 148.426 409.785C184.178 462.439 265.776 462.439 301.528 409.785Z" fill="#FFB655"/>
      <path d="M409.787 301.527C401.355 307.253 391.573 311.802 380.44 314.8C348.427 323.419 323.421 348.425 314.801 380.439C311.804 391.571 307.254 401.354 301.528 409.786C364.04 421.737 421.738 364.039 409.787 301.527Z" fill="#FFB35B"/>
      <path d="M409.787 148.426C407.873 158.437 404.173 168.571 398.42 178.563C381.879 207.294 381.879 242.658 398.42 271.39C404.173 281.382 407.873 291.516 409.787 301.527C462.44 265.775 462.44 184.179 409.787 148.426Z" fill="#FFB656"/>
      <path d="M301.528 40.1664C307.254 48.5986 311.804 58.3811 314.801 69.5141C323.421 101.527 348.427 126.533 380.44 135.153C391.573 138.15 401.355 142.7 409.787 148.425C421.738 85.9132 364.04 28.216 301.528 40.1664Z" fill="#FFC042"/>
      <path d="M148.426 40.1671C158.437 42.081 168.571 45.781 178.563 51.5336C207.295 68.0754 242.659 68.0755 271.39 51.5336C281.382 45.7812 291.516 42.0812 301.527 40.1673C265.774 -12.4858 184.178 -12.4858 148.426 40.1671Z" fill="#FFCE2A"/>
    </g>
    <path fill-rule="evenodd" clip-rule="evenodd" d="M135.155 69.5136C138.152 58.3808 142.702 48.5984 148.428 40.1662C158.438 42.0801 168.573 45.7802 178.564 51.5326C207.296 68.0744 242.66 68.0744 271.391 51.5326C281.383 45.78 291.518 42.0798 301.529 40.166C307.255 48.5982 311.805 58.3807 314.802 69.5136C323.422 101.527 348.428 126.533 380.441 135.152C391.573 138.15 401.356 142.699 409.788 148.425C407.874 158.436 404.174 168.571 398.421 178.562C381.879 207.294 381.879 242.658 398.421 271.39C404.174 281.381 407.874 291.516 409.788 301.527C401.356 307.253 391.573 311.802 380.441 314.8C348.428 323.419 323.422 348.425 314.802 380.438C311.805 391.571 307.255 401.354 301.529 409.786C291.518 407.872 281.383 404.172 271.391 398.419C242.66 381.878 207.296 381.878 178.564 398.419C168.573 404.172 158.438 407.872 148.428 409.786C142.702 401.354 138.152 391.571 135.155 380.438C126.535 348.425 101.529 323.419 69.5161 314.8C58.383 311.802 48.6003 307.252 40.168 301.526C42.0819 291.516 45.7819 281.381 51.5344 271.39C68.0762 242.658 68.0762 207.294 51.5344 178.562C45.7819 168.571 42.0819 158.437 40.168 148.426C48.6002 142.7 58.3829 138.15 69.5161 135.152C101.529 126.533 126.535 101.527 135.155 69.5136Z" fill="url(#daisy_disc_gradient)"/>
  </g>
  <rect x="313.369" y="252.866" width="31.3006" height="15.6503" rx="7.82514" transform="rotate(60 313.369 252.866)" fill="#FFA17A"/>
  <rect x="293.808" y="252.866" width="31.3006" height="15.6503" rx="7.82514" transform="rotate(60 293.808 252.866)" fill="#FFA17A"/>
  <rect x="154.911" y="252.866" width="31.3006" height="15.6503" rx="7.82514" transform="rotate(60 154.911 252.866)" fill="#FFAB89"/>
  <rect x="135.348" y="252.866" width="31.3006" height="15.6503" rx="7.82514" transform="rotate(60 135.348 252.866)" fill="#FFAB89"/>
  <g>
    <rect x="296.044" y="164.833" width="31.3006" height="15.6503" rx="7.82514" transform="rotate(15 296.044 164.833)" fill="#FFA17A"/>
    <!-- <animateTransform attributeName="transform" type="translate" values="0,0; 0,-3; 0,0; 0,0; 0,0" dur="5s" repeatCount="indefinite" /> -->
  </g>
  <g>
    <rect x="123.752" y="172.934" width="31.3006" height="15.6503" rx="7.82514" transform="rotate(-15 123.752 172.934)" fill="#FFAB89"/>
    <!-- <animateTransform attributeName="transform" type="translate" values="0,0; 0,-3; 0,0; 0,0; 0,0" dur="5s" repeatCount="indefinite" /> -->
  </g>
  <g data-name="mouth">
    <path d="M207.872 252.866C211.999 257.438 219.319 260.691 225.479 260.691C231.638 260.691 238.958 257.438 243.085 252.866" stroke="#8B2C0C" stroke-opacity="0.05" stroke-width="12" stroke-linecap="round"/>
    <path d="M207.872 250.91C211.999 255.482 219.319 258.735 225.479 258.735C231.638 258.735 238.958 255.482 243.085 250.91" stroke="#D05B34" stroke-width="12" stroke-linecap="round"/>
  </g>
  <g data-name="eye-open">
    <g data-name="left">
      <rect x="125.037" y="192.221" width="31.3006" height="15.6503" rx="7.82514" transform="rotate(45 125.037 192.221)" fill="black"/>
      <rect x="117.882" y="196.134" width="58.6886" height="58.6886" rx="29.3443" fill="black"/>
      <rect x="117.882" y="198.089" width="58.6886" height="58.6886" rx="29.3443" fill="black" fill-opacity="0.05"/>
      <path fill-rule="evenodd" clip-rule="evenodd" d="M125.086 233.301C128.309 224.184 137.004 217.652 147.225 217.652C157.447 217.652 166.142 224.185 169.365 233.304C166.142 242.42 157.446 248.952 147.226 248.952C137.004 248.952 128.308 242.419 125.086 233.301Z" fill="#784012"/>
      <path fill-rule="evenodd" clip-rule="evenodd" d="M166.831 238.399C169.279 234.693 170.704 230.252 170.704 225.478C170.704 212.513 160.193 202.002 147.228 202.002C134.263 202.002 123.753 212.513 123.753 225.478C123.753 229.758 124.898 233.771 126.899 237.226C131.1 230.867 138.311 226.671 146.502 226.671C155.187 226.671 162.771 231.388 166.831 238.399Z" fill="black" fill-opacity="0.35"/>
      <rect x="133.532" y="211.784" width="27.388" height="27.388" rx="13.694" fill="black"/>
      <circle cx="140.814" cy="211.609" r="11.7377" fill="white"/>
      <circle cx="162.848" cy="227.64" r="5.86885" fill="white"/>
      <circle cx="155.525" cy="239.853" r="3.91257" fill="white"/>
    </g>
    <g data-name="right">
      <rect x="337.181" y="203.288" width="31.3006" height="15.6503" rx="7.82514" transform="rotate(135 337.181 203.288)" fill="black"/>
      <rect x="274.385" y="198.09" width="58.6886" height="58.6886" rx="29.3443" fill="black" fill-opacity="0.05"/>
      <rect x="274.385" y="196.134" width="58.6886" height="58.6886" rx="29.3443" fill="black"/>
      <path fill-rule="evenodd" clip-rule="evenodd" d="M281.629 233.41C284.664 223.959 293.525 217.12 303.984 217.12C314.166 217.12 322.833 223.602 326.086 232.664C323.051 242.114 314.189 248.954 303.731 248.954C293.549 248.954 284.881 242.472 281.629 233.41Z" fill="#784012"/>
      <path fill-rule="evenodd" clip-rule="evenodd" d="M323.862 237.557C325.984 234.028 327.204 229.896 327.204 225.479C327.204 212.514 316.693 202.003 303.728 202.003C290.763 202.003 280.253 212.514 280.253 225.479C280.253 230.068 281.57 234.349 283.846 237.966C287.951 231.137 295.432 226.569 303.98 226.569C312.356 226.569 319.708 230.956 323.862 237.557Z" fill="black" fill-opacity="0.35"/>
      <rect x="290.035" y="211.785" width="27.388" height="27.388" rx="13.694" fill="black"/>
      <circle cx="297.318" cy="211.609" r="11.7377" fill="white"/>
      <circle cx="319.352" cy="227.64" r="5.86885" fill="white"/>
      <circle cx="312.029" cy="239.853" r="3.91257" fill="white"/>
    </g>
    <!-- <animate attributeName="display" values="inline;none;inline" keyTimes="0;0.97;1" dur="15s" repeatCount="indefinite" /> -->
  </g>
  <g data-name="eye-close" stroke="black" stroke-width="12" stroke-linecap="round" style="display: none;">
    <path d="M326 224C326 212.402 315.926 203 303.5 203C291.074 203 281 212.402 281 224" />
    <path d="M170 224C170 212.402 159.926 203 147.5 203C135.074 203 125 212.402 125 224" />
    <!-- <animate attributeName="display" values="none;inline;none" keyTimes="0;0.97;1" dur="15s" repeatCount="indefinite" /> -->
  </g>
  <defs>
    <radialGradient id="daisy_disc_gradient" cx="0" cy="0" r="1" gradientUnits="userSpaceOnUse" gradientTransform="translate(40.0037 40.0027) rotate(45) scale(522.888 522.888)">
      <stop stop-color="#FFE600"/>
      <stop offset="1" stop-color="#FFA573"/>
    </radialGradient>
  </defs>
</svg>
